<svg width="120" height="120" viewBox="0 0 120 120" fill="none" xmlns="http://www.w3.org/2000/svg"><circle cx="60" cy="60" r="59.5" stroke="#4166AC"/><circle cx="60" cy="60" r="50" fill="#214C9B"/><circle cx="60" cy="60" r="50" fill="url(#paint0_linear_127_215)" fill-opacity=".2"/><path d="M28.873 55.511v-3.04l12.194 6.202v2.71l-12.194 6.201v-3.052l8.703-4.504-8.703-4.517zm22.119-4.468h11.78v1.795l-8.106 16.614-2.893-1.404 6.738-13.794h-7.52v-3.21zm19.458-.451c1.31 0 2.437.321 3.381.964.952.643 1.685 1.628 2.197 2.954.521 1.319.782 3.158.782 5.518 0 2.384-.265 4.24-.794 5.566-.52 1.327-1.225 2.303-2.112 2.93-.887.618-2.006.928-3.357.928-1.35 0-2.486-.314-3.405-.94-.92-.627-1.64-1.58-2.161-2.857-.52-1.277-.781-3.096-.781-5.456 0-3.296.508-5.685 1.526-7.166 1.13-1.627 2.706-2.441 4.724-2.441zm.085 3.247a2.33 2.33 0 00-1.538.561c-.448.367-.79 1.001-1.025 1.905-.236.903-.354 2.225-.354 3.967 0 2.27.268 3.841.805 4.712.546.863 1.25 1.294 2.112 1.294.83 0 1.49-.411 1.978-1.233.594-.993.89-2.653.89-4.98 0-2.36-.268-3.988-.805-4.883-.529-.896-1.216-1.343-2.063-1.343zm13.928-3.247c1.31 0 2.438.321 3.382.964.952.643 1.684 1.628 2.197 2.954.52 1.319.781 3.158.781 5.518 0 2.384-.264 4.24-.793 5.566-.521 1.327-1.225 2.303-2.112 2.93-.887.618-2.006.928-3.357.928-1.35 0-2.486-.314-3.406-.94-.92-.627-1.64-1.58-2.16-2.857-.521-1.277-.782-3.096-.782-5.456 0-3.296.509-5.685 1.526-7.166 1.131-1.627 2.706-2.441 4.724-2.441zm.086 3.247a2.33 2.33 0 00-1.538.561c-.448.367-.79 1.001-1.026 1.905-.236.903-.354 2.225-.354 3.967 0 2.27.269 3.841.806 4.712.545.863 1.25 1.294 2.112 1.294.83 0 1.49-.411 1.977-1.233.594-.993.892-2.653.892-4.98 0-2.36-.27-3.988-.806-4.883-.53-.896-1.217-1.343-2.063-1.343z" fill="#fff"/><defs><linearGradient id="paint0_linear_127_215" x1="60" y1="10" x2="60" y2="110" gradientUnits="userSpaceOnUse"><stop stop-color="#fff"/><stop offset="1" stop-color="#fff" stop-opacity="0"/></linearGradient></defs></svg>