<svg width="120" height="120" viewBox="0 0 120 120" fill="none" xmlns="http://www.w3.org/2000/svg"><circle cx="60" cy="60" r="59.5" stroke="#4166AC"/><circle cx="60" cy="60" r="50" fill="#214C9B"/><circle cx="60" cy="60" r="50" fill="url(#paint0_linear_127_214)" fill-opacity=".2"/><path d="M24.588 51.044h5.115V69h-3.394V54.254H22.61l1.978-3.21zm16.846-.452c1.31 0 2.437.321 3.38.964.953.643 1.685 1.628 2.198 2.954.521 1.319.782 3.158.782 5.518 0 2.384-.265 4.24-.794 5.566-.52 1.327-1.225 2.303-2.112 2.93-.887.618-2.006.928-3.357.928-1.35 0-2.486-.314-3.405-.94-.92-.627-1.64-1.58-2.161-2.857-.521-1.277-.781-3.096-.781-5.456 0-3.296.508-5.685 1.526-7.166 1.13-1.627 2.705-2.441 4.724-2.441zm.085 3.247a2.33 2.33 0 00-1.538.561c-.448.367-.79 1.001-1.025 1.905-.236.903-.354 2.225-.354 3.967 0 2.27.268 3.841.805 4.712.546.863 1.25 1.294 2.112 1.294.83 0 1.49-.411 1.978-1.233.594-.993.89-2.653.89-4.98 0-2.36-.268-3.988-.805-4.883-.529-.896-1.217-1.343-2.063-1.343zM69.059 69h-3.394l-3.32-8.386L58.962 69H55.58l5.665-13.281h2.148L69.058 69zm15.063-5.676H73.416c.155.944.566 1.697 1.233 2.258.675.553 1.534.83 2.576.83 1.245 0 2.315-.435 3.21-1.306l2.808 1.318c-.7.993-1.538 1.73-2.515 2.21-.977.472-2.136.708-3.479.708-2.083 0-3.78-.655-5.09-1.966-1.31-1.318-1.966-2.966-1.966-4.943 0-2.027.651-3.707 1.954-5.042 1.31-1.343 2.95-2.014 4.919-2.014 2.091 0 3.792.671 5.102 2.014 1.31 1.335 1.966 3.1 1.966 5.298l-.012.635zm-3.345-2.625a3.334 3.334 0 00-1.306-1.806c-.643-.464-1.392-.696-2.246-.696-.928 0-1.742.26-2.442.781-.44.325-.846.9-1.22 1.721h7.214zm4.87-4.98h12.378v3.174H93.62V69h-3.345V58.893h-4.627v-3.174z" fill="#fff"/><defs><linearGradient id="paint0_linear_127_214" x1="60" y1="10" x2="60" y2="110" gradientUnits="userSpaceOnUse"><stop stop-color="#fff"/><stop offset="1" stop-color="#fff" stop-opacity="0"/></linearGradient></defs></svg>